<?xml version="1.0" encoding="UTF-8" standalone="no"?>
<!DOCTYPE svg PUBLIC "-//W3C//DTD SVG 1.1//EN" "http://www.w3.org/Graphics/SVG/1.1/DTD/svg11.dtd">
<svg width="100%" height="100%" viewBox="0 0 2357 1180" version="1.1" xmlns="http://www.w3.org/2000/svg" xmlns:xlink="http://www.w3.org/1999/xlink" xml:space="preserve" xmlns:serif="http://www.serif.com/" style="fill-rule:evenodd;clip-rule:evenodd;stroke-linecap:square;stroke-miterlimit:1.5;">
    <g transform="matrix(1,0,0,1,-4730.154608,-54.308633)">
        <g id="Artboard5" transform="matrix(1,0,0,0.243522,-0.420431,1345.242439)">
            <rect x="4668.42" y="-5524.11" width="2480.315" height="5287.89" style="fill:none;"/>
            <g transform="matrix(0.581213,0,-0,2.288662,4678.635728,-5716.471076)">
                <g transform="matrix(-1.104575,0,0,0.922925,2355.128174,13.988436)">
                    <path d="M1283.58,367.622L1009.411,367.622L1009.411,360.655C1009.411,261.706 942.389,181.492 859.712,181.492L719.61,181.492L719.61,367.622L757.309,367.622L757.309,857.426L1536.573,857.426L1536.573,367.622L1573.381,367.622L1573.381,181.492L1433.279,181.492C1350.602,181.492 1283.58,261.706 1283.58,360.655L1283.58,367.622Z" style="fill:rgb(125,4,0);"/>
                </g>
                <g>
                    <path d="M2034.638,239.86L2034.638,302.779L1560.264,353.277L1560.264,181.492L2034.638,239.86Z" style="fill:rgb(232,108,43);"/>
                    <g transform="matrix(-1,-0,-0,1,2177.475225,-0)">
                        <path d="M2034.638,239.86L2034.638,302.779L1560.264,353.277L1560.264,181.492L2034.638,239.86Z" style="fill:rgb(232,108,43);"/>
                    </g>
                    <g transform="matrix(0.722222,0,-0,0.708662,431.404101,-70.328785)">
                        <path d="M2180.179,372.44C2186.048,372.44 2191.678,374.918 2195.828,379.329C2199.979,383.74 2202.31,389.723 2202.31,395.961C2202.31,426.67 2202.31,476.551 2202.31,476.551L2158.043,476.551L2158.043,395.961C2158.043,389.723 2160.375,383.74 2164.525,379.329C2168.675,374.918 2174.305,372.44 2180.174,372.44C2180.176,372.44 2180.177,372.44 2180.179,372.44Z" style="fill:rgb(232,108,43);"/>
                    </g>
                    <g transform="matrix(-0.722222,-0,-0,0.708662,1746.071123,-70.328785)">
                        <path d="M2180.179,372.44C2186.048,372.44 2191.678,374.918 2195.828,379.329C2199.979,383.74 2202.31,389.723 2202.31,395.961C2202.31,426.67 2202.31,476.551 2202.31,476.551L2158.043,476.551L2158.043,395.961C2158.043,389.723 2160.375,383.74 2164.525,379.329C2168.675,374.918 2174.305,372.44 2180.174,372.44C2180.176,372.44 2180.177,372.44 2180.179,372.44Z" style="fill:rgb(232,108,43);"/>
                    </g>
                    <g transform="matrix(0.510688,0.510688,-0.501099,0.501099,1137.27225,-1088.38965)">
                        <path d="M2180.253,372.44C2186.017,372.44 2191.629,374.839 2195.793,379.082C2199.956,383.326 2202.31,389.046 2202.31,394.919C2202.31,425.527 2202.31,476.551 2202.31,476.551L2158.043,476.551C2158.043,476.551 2158.043,425.698 2158.043,395.073C2158.043,382.423 2167.838,372.44 2180.251,372.44C2180.252,372.44 2180.253,372.44 2180.253,372.44Z" style="fill:rgb(232,108,43);"/>
                    </g>
                    <g transform="matrix(-0.510688,0.510688,0.501099,0.501099,1040.202975,-1088.38965)">
                        <path d="M2180.253,372.44C2186.017,372.44 2191.629,374.839 2195.793,379.082C2199.956,383.326 2202.31,389.046 2202.31,394.919C2202.31,425.527 2202.31,476.551 2202.31,476.551L2158.043,476.551C2158.043,476.551 2158.043,425.698 2158.043,395.073C2158.043,382.423 2167.838,372.44 2180.251,372.44C2180.252,372.44 2180.253,372.44 2180.253,372.44Z" style="fill:rgb(232,108,43);"/>
                    </g>
                    <g transform="matrix(-0,0.722222,-0.708662,-0,2352.045573,-1304.728403)">
                        <path d="M2180.18,372.44C2186.049,372.44 2191.678,374.719 2195.828,378.775C2199.979,382.831 2202.31,388.332 2202.31,394.068C2202.31,424.57 2202.31,476.551 2202.31,476.551L2158.043,476.551L2158.043,394.068C2158.043,388.332 2160.374,382.831 2164.525,378.775C2168.675,374.719 2174.304,372.44 2180.173,372.44C2180.175,372.44 2180.178,372.44 2180.18,372.44Z" style="fill:rgb(232,108,43);"/>
                    </g>
                    <g transform="matrix(-0,0.722222,0.708662,0,-174.570348,-1304.728403)">
                        <path d="M2180.18,372.44C2186.049,372.44 2191.678,374.719 2195.828,378.775C2199.979,382.831 2202.31,388.332 2202.31,394.068C2202.31,424.57 2202.31,476.551 2202.31,476.551L2158.043,476.551L2158.043,394.068C2158.043,388.332 2160.374,382.831 2164.525,378.775C2168.675,374.719 2174.304,372.44 2180.173,372.44C2180.175,372.44 2180.178,372.44 2180.18,372.44Z" style="fill:rgb(232,108,43);"/>
                    </g>
                    <g transform="matrix(-0.510688,0.510688,-0.501099,-0.501099,3364.053291,-593.444302)">
                        <path d="M2184.355,372.44C2194.391,372.44 2202.31,380.511 2202.31,390.739C2202.31,420.608 2202.31,476.551 2202.31,476.551L2158.043,476.551C2158.043,476.551 2158.043,429.571 2158.043,398.729C2158.043,391.86 2160.796,385.17 2165.665,380.208C2170.534,375.246 2177.098,372.44 2183.838,372.44C2184.011,372.44 2184.183,372.44 2184.355,372.44Z" style="fill:rgb(232,108,43);"/>
                    </g>
                    <g transform="matrix(0.510688,0.510688,0.501099,-0.501099,-1186.578066,-593.444302)">
                        <path d="M2184.355,372.44C2194.391,372.44 2202.31,380.511 2202.31,390.739C2202.31,420.608 2202.31,476.551 2202.31,476.551L2158.043,476.551C2158.043,476.551 2158.043,429.571 2158.043,398.729C2158.043,391.86 2160.796,385.17 2165.665,380.208C2170.534,375.246 2177.098,372.44 2183.838,372.44C2184.011,372.44 2184.183,372.44 2184.355,372.44Z" style="fill:rgb(232,108,43);"/>
                    </g>
                </g>
                <g transform="matrix(1,0,0,1,8.332392,-17.621206)">
                    <path d="M831.537,1039.368C831.537,1039.368 831.537,1054.645 831.537,1069.122C831.537,1083.167 820.619,1094.553 807.151,1094.553C776.467,1094.553 722.465,1094.553 678.512,1094.553C668.139,1094.553 658.901,1087.709 655.486,1077.493C652.071,1067.278 655.227,1055.929 663.353,1049.203C670.409,1043.363 675.235,1039.368 675.235,1039.368L831.537,1039.368Z"/>
                </g>
                <g transform="matrix(-1,0,0,1,2169.443637,-17.621206)">
                    <path d="M831.537,1039.368C831.537,1039.368 831.537,1054.645 831.537,1069.122C831.537,1083.167 820.619,1094.553 807.151,1094.553C776.467,1094.553 722.465,1094.553 678.512,1094.553C668.139,1094.553 658.901,1087.709 655.486,1077.493C652.071,1067.278 655.227,1055.929 663.353,1049.203C670.409,1043.363 675.235,1039.368 675.235,1039.368L831.537,1039.368Z"/>
                </g>
                <g transform="matrix(1,0,0,1.012224,-0,-9.844447)">
                    <path d="M1518.624,805.329L1518.624,1019.134L1303.235,1019.134L1303.235,1017.773C1303.235,972.679 1267.752,936.123 1223.982,936.123C1146.692,936.123 1029.799,936.123 952.509,936.123C908.739,936.123 873.256,972.679 873.256,1017.773C873.256,1018.656 873.256,1019.134 873.256,1019.134L657.867,1019.134L657.867,805.329L1518.624,805.329Z" style="fill:rgb(94,94,94);"/>
                </g>
                <path d="M657.867,805.329C1036.083,838.686 1367.069,862.442 1518.624,849.72L1518.624,805.329L657.867,805.329Z" style="fill:rgb(61,61,61);"/>
                <g transform="matrix(0,-0.199574,1,0,754.935446,484.569594)">
                    <path d="M657.867,805.329C855.284,823.54 1124.911,838.064 1493.815,847.52L1518.624,805.329L657.867,805.329Z" style="fill:rgb(232,108,43);"/>
                </g>
                <g transform="matrix(-0,-0.199574,-1,0,1422.539779,484.569594)">
                    <path d="M657.867,805.329C901.475,830.465 1175.43,846.012 1493.815,847.52L1518.624,805.329L657.867,805.329Z" style="fill:rgb(232,108,43);"/>
                </g>
                <g>
                    <g>
                        <g>
                            <g transform="matrix(0.836364,0,-0,1.639214,138.234565,-397.603557)">
                                <rect x="687.695" y="353.277" width="62.62" height="380.571" style="fill:rgb(146,146,146);"/>
                            </g>
                            <g transform="matrix(0.836364,0,-0,1.187827,337.469648,-66.354982)">
                                <rect x="687.695" y="353.277" width="62.62" height="380.571" style="fill:rgb(146,146,146);"/>
                            </g>
                            <g transform="matrix(0.836364,0,-0,1.187827,437.08719,-66.354982)">
                                <rect x="687.695" y="353.277" width="62.62" height="380.571" style="fill:rgb(146,146,146);"/>
                            </g>
                            <g transform="matrix(-0.836364,-0,-0,1.639214,1440.551115,-397.603557)">
                                <path d="M750.315,356.565L750.315,458.073L687.695,458.073L687.695,371.324C706.454,364.656 727.586,359.604 750.315,356.565Z" style="fill:rgb(146,146,146);"/>
                            </g>
                            <g transform="matrix(0.836364,0,-0,1.187827,536.704732,-66.354982)">
                                <rect x="687.695" y="353.277" width="62.62" height="380.571" style="fill:rgb(146,146,146);"/>
                            </g>
                            <g transform="matrix(0.836364,0,-0,1.187827,636.322274,-66.354982)">
                                <rect x="687.695" y="353.277" width="62.62" height="380.571" style="fill:rgb(146,146,146);"/>
                            </g>
                            <g transform="matrix(0.836364,0,-0,1.639214,835.557358,-397.603557)">
                                <rect x="687.695" y="353.277" width="62.62" height="380.571" style="fill:rgb(146,146,146);"/>
                            </g>
                            <g transform="matrix(0.836364,0,-0,1.187827,735.939816,-66.354982)">
                                <rect x="687.695" y="353.277" width="62.62" height="380.571" style="fill:rgb(146,146,146);"/>
                            </g>
                            <g transform="matrix(0.836364,0,-0,0.451386,932.728097,22.027939)">
                                <path d="M687.695,1735.323L687.695,353.277L750.315,353.277L750.315,733.847L732.158,733.847C713.301,737.979 702.35,756.761 700.527,792.455L700.527,1735.323L687.695,1735.323Z" style="fill:rgb(146,146,146);"/>
                            </g>
                            <g transform="matrix(0.836364,0,-0,0.451386,42.04812,22.027939)">
                                <path d="M704.675,733.847L687.695,733.847L687.695,353.277L750.315,353.277L750.315,1735.323L736.306,1735.323L736.306,792.455C734.076,757.515 723.939,737.225 704.675,733.847Z" style="fill:rgb(146,146,146);"/>
                            </g>
                        </g>
                        <g transform="matrix(0.836364,0,-0,1.187827,237.852106,-66.354982)">
                            <rect x="687.695" y="353.277" width="62.62" height="380.571" style="fill:rgb(146,146,146);"/>
                        </g>
                    </g>
                    <g transform="matrix(0.836364,0,-0,1.639214,735.939816,-397.603557)">
                        <path d="M750.315,356.565L750.315,458.073L687.695,458.073L687.695,371.324C706.454,364.656 727.586,359.604 750.315,356.565Z" style="fill:rgb(146,146,146);"/>
                    </g>
                </g>
                <g transform="matrix(0.669104,0,0,0.669104,806.200992,987.01771)">
                    <g transform="matrix(625.853637,0,0,625.853637,822.107014,-307.296513)">
                    </g>
                    <text x="79.845px" y="-307.297px" style="font-family:'HelveticaRounded-Bold', 'Helvetica Rounded';font-weight:700;font-size:625.854px;fill:white;">23</text>
                </g>
                <g transform="matrix(1.160916,0,0,1.160916,-182.985653,-34.575774)">
                    <g transform="matrix(-1,-0,0,-0.799959,2177.533878,798.092437)">
                        <path d="M907.012,535.553L1089.288,535.553L1271.565,535.553C1271.565,636.222 1189.957,717.83 1089.288,717.83C988.62,717.83 907.012,636.222 907.012,535.553Z" style="fill:rgb(232,108,43);"/>
                    </g>
                    <g transform="matrix(1,0,0,1,-23.551822,2.956863)">
                        <circle cx="1111.797" cy="241.657" r="46.727" style="fill:rgb(232,108,43);"/>
                    </g>
                    <g transform="matrix(0.541412,0,0,0.541412,462.966601,117.598971)">
                        <circle cx="1005.471" cy="277.074" r="14.267"/>
                    </g>
                    <g transform="matrix(0.541412,0,0,0.541412,624.775378,117.598971)">
                        <circle cx="1005.471" cy="277.074" r="14.267"/>
                    </g>
                    <g>
                        <g transform="matrix(1,0,0,1,-341.843118,-42.388175)">
                            <circle cx="1269.032" cy="378.531" r="47.218" style="fill:rgb(201,84,23);"/>
                        </g>
                        <g transform="matrix(1,0,0,1,-317.222773,-19.065424)">
                            <circle cx="1269.032" cy="378.531" r="47.218" style="fill:rgb(201,84,23);"/>
                        </g>
                        <g transform="matrix(1,0,0,1,-258.243072,-24.557201)">
                            <circle cx="1269.032" cy="378.531" r="47.218" style="fill:rgb(201,84,23);"/>
                        </g>
                        <g transform="matrix(1,0,0,1,-197.7618,-9.842828)">
                            <circle cx="1269.032" cy="378.531" r="47.218" style="fill:rgb(201,84,23);"/>
                        </g>
                        <g transform="matrix(1,0,0,1,-133.568349,-19.065424)">
                            <circle cx="1269.032" cy="378.531" r="47.218" style="fill:rgb(201,84,23);"/>
                        </g>
                        <g transform="matrix(1,0,0,1,-66.746832,-19.065424)">
                            <circle cx="1269.032" cy="378.531" r="47.218" style="fill:rgb(201,84,23);"/>
                        </g>
                        <g transform="matrix(1,0,0,1,-16.348125,-31.2308)">
                            <circle cx="1269.032" cy="378.531" r="47.218" style="fill:rgb(201,84,23);"/>
                        </g>
                    </g>
                    <g>
                        <g transform="matrix(1,0,0,1,-2.331783,-34.976483)">
                            <circle cx="1269.032" cy="378.531" r="47.218"/>
                        </g>
                        <g transform="matrix(1,0,0,1,-83.943614,120.085909)">
                            <circle cx="1269.032" cy="378.531" r="47.218"/>
                        </g>
                        <g transform="matrix(1,0,0,1,-353.845469,36.142375)">
                            <circle cx="1269.032" cy="378.531" r="47.218"/>
                        </g>
                        <g transform="matrix(1,0,0,1,-210.441887,141.654785)">
                            <circle cx="1269.032" cy="378.531" r="47.218"/>
                        </g>
                        <g transform="matrix(1,0,0,1,-57.711198,4.66354)">
                            <circle cx="1269.032" cy="378.531" r="47.218"/>
                        </g>
                        <g transform="matrix(1,0,0,1,-134.659461,-0.582932)">
                            <circle cx="1269.032" cy="378.531" r="47.218"/>
                        </g>
                        <g transform="matrix(1,0,0,1,-193.536578,12.241796)">
                            <circle cx="1269.032" cy="378.531" r="47.218"/>
                        </g>
                        <g transform="matrix(1,0,0,1,-258.243072,-10.492918)">
                            <circle cx="1269.032" cy="378.531" r="47.218"/>
                        </g>
                        <g transform="matrix(1,0,0,1,-327.613107,-2.33173)">
                            <circle cx="1269.032" cy="378.531" r="47.218"/>
                        </g>
                        <g transform="matrix(1,0,0,1,-362.58959,-51.881766)">
                            <circle cx="1269.032" cy="378.531" r="47.218"/>
                        </g>
                        <g transform="matrix(1.722223,0,0,1.722223,-1191.380501,-213.923244)">
                            <circle cx="1269.032" cy="378.531" r="47.218"/>
                        </g>
                        <g transform="matrix(1.722223,0,0,1.722223,-1074.209255,-201.681475)">
                            <circle cx="1269.032" cy="378.531" r="47.218"/>
                        </g>
                        <g transform="matrix(1.722223,0,0,1.722223,-936.052145,-223.250297)">
                            <circle cx="1269.032" cy="378.531" r="47.218"/>
                        </g>
                    </g>
                </g>
                <g transform="matrix(-1.104575,-0,-0,0.922925,2355.128174,13.988436)">
                    <path d="M1283.58,367.622L1009.411,367.622L1009.411,360.655C1009.411,261.706 942.389,181.492 859.712,181.492L719.61,181.492L719.61,367.622L757.309,367.622L757.309,857.426L1536.573,857.426L1536.573,367.622L1573.381,367.622L1573.381,181.492L1433.279,181.492C1350.602,181.492 1283.58,261.706 1283.58,360.655L1283.58,367.622Z" style="fill:rgb(204,169,28);"/>
                </g>
                <g>
                    <g>
                        <g>
                            <path d="M2034.638,239.86L2034.638,302.779L1560.264,353.277L1560.264,181.492L2034.638,239.86Z" style="fill:rgb(255,115,42);"/>
                            <g transform="matrix(-1,-0,-0,1,2177.475225,-0)">
                                <path d="M2034.638,239.86L2034.638,302.779L1560.264,353.277L1560.264,181.492L2034.638,239.86Z" style="fill:rgb(255,115,42);"/>
                            </g>
                            <g transform="matrix(0.722222,0,-0,0.708662,431.404101,-70.328785)">
                                <path d="M2180.179,372.44C2186.048,372.44 2191.678,374.918 2195.828,379.329C2199.979,383.74 2202.31,389.723 2202.31,395.961C2202.31,426.67 2202.31,476.551 2202.31,476.551L2158.043,476.551L2158.043,395.961C2158.043,389.723 2160.375,383.74 2164.525,379.329C2168.675,374.918 2174.305,372.44 2180.174,372.44C2180.176,372.44 2180.177,372.44 2180.179,372.44Z" style="fill:rgb(255,115,42);"/>
                            </g>
                            <g transform="matrix(-0.722222,-0,-0,0.708662,1746.071123,-70.328785)">
                                <path d="M2180.179,372.44C2186.048,372.44 2191.678,374.918 2195.828,379.329C2199.979,383.74 2202.31,389.723 2202.31,395.961C2202.31,426.67 2202.31,476.551 2202.31,476.551L2158.043,476.551L2158.043,395.961C2158.043,389.723 2160.375,383.74 2164.525,379.329C2168.675,374.918 2174.305,372.44 2180.174,372.44C2180.176,372.44 2180.177,372.44 2180.179,372.44Z" style="fill:rgb(255,115,42);"/>
                            </g>
                            <g transform="matrix(0.510688,0.510688,-0.501099,0.501099,1137.27225,-1088.38965)">
                                <path d="M2180.253,372.44C2186.017,372.44 2191.629,374.839 2195.793,379.082C2199.956,383.326 2202.31,389.046 2202.31,394.919C2202.31,425.527 2202.31,476.551 2202.31,476.551L2158.043,476.551C2158.043,476.551 2158.043,425.698 2158.043,395.073C2158.043,382.423 2167.838,372.44 2180.251,372.44C2180.252,372.44 2180.253,372.44 2180.253,372.44Z" style="fill:rgb(255,115,42);"/>
                            </g>
                            <g transform="matrix(-0.510688,0.510688,0.501099,0.501099,1040.202975,-1088.38965)">
                                <path d="M2180.253,372.44C2186.017,372.44 2191.629,374.839 2195.793,379.082C2199.956,383.326 2202.31,389.046 2202.31,394.919C2202.31,425.527 2202.31,476.551 2202.31,476.551L2158.043,476.551C2158.043,476.551 2158.043,425.698 2158.043,395.073C2158.043,382.423 2167.838,372.44 2180.251,372.44C2180.252,372.44 2180.253,372.44 2180.253,372.44Z" style="fill:rgb(255,115,42);"/>
                            </g>
                            <g transform="matrix(-0,0.722222,-0.708662,-0,2352.045573,-1304.728403)">
                                <path d="M2180.18,372.44C2186.049,372.44 2191.678,374.719 2195.828,378.775C2199.979,382.831 2202.31,388.332 2202.31,394.068C2202.31,424.57 2202.31,476.551 2202.31,476.551L2158.043,476.551L2158.043,394.068C2158.043,388.332 2160.374,382.831 2164.525,378.775C2168.675,374.719 2174.304,372.44 2180.173,372.44C2180.175,372.44 2180.178,372.44 2180.18,372.44Z" style="fill:rgb(255,115,42);"/>
                            </g>
                            <g transform="matrix(-0,0.722222,0.708662,0,-174.570348,-1304.728403)">
                                <path d="M2180.18,372.44C2186.049,372.44 2191.678,374.719 2195.828,378.775C2199.979,382.831 2202.31,388.332 2202.31,394.068C2202.31,424.57 2202.31,476.551 2202.31,476.551L2158.043,476.551L2158.043,394.068C2158.043,388.332 2160.374,382.831 2164.525,378.775C2168.675,374.719 2174.304,372.44 2180.173,372.44C2180.175,372.44 2180.178,372.44 2180.18,372.44Z" style="fill:rgb(255,115,42);"/>
                            </g>
                            <g transform="matrix(-0.510688,0.510688,-0.501099,-0.501099,3364.053291,-593.444302)">
                                <path d="M2184.355,372.44C2194.391,372.44 2202.31,380.511 2202.31,390.739C2202.31,420.608 2202.31,476.551 2202.31,476.551L2158.043,476.551C2158.043,476.551 2158.043,429.571 2158.043,398.729C2158.043,391.86 2160.796,385.17 2165.665,380.208C2170.534,375.246 2177.098,372.44 2183.838,372.44C2184.011,372.44 2184.183,372.44 2184.355,372.44Z" style="fill:rgb(255,115,42);"/>
                            </g>
                            <g transform="matrix(0.510688,0.510688,0.501099,-0.501099,-1186.578066,-593.444302)">
                                <path d="M2184.355,372.44C2194.391,372.44 2202.31,380.511 2202.31,390.739C2202.31,420.608 2202.31,476.551 2202.31,476.551L2158.043,476.551C2158.043,476.551 2158.043,429.571 2158.043,398.729C2158.043,391.86 2160.796,385.17 2165.665,380.208C2170.534,375.246 2177.098,372.44 2183.838,372.44C2184.011,372.44 2184.183,372.44 2184.355,372.44Z" style="fill:rgb(255,115,42);"/>
                            </g>
                        </g>
                        <g transform="matrix(0,-0.199574,1,0,754.935446,484.569594)">
                            <path d="M657.867,805.329C855.284,823.54 1124.911,838.064 1493.815,847.52L1518.624,805.329L657.867,805.329Z" style="fill:rgb(255,115,42);"/>
                        </g>
                        <g transform="matrix(-0,-0.199574,-1,0,1422.539779,484.569594)">
                            <path d="M657.867,805.329C901.475,830.465 1175.43,846.012 1493.815,847.52L1518.624,805.329L657.867,805.329Z" style="fill:rgb(255,115,42);"/>
                        </g>
                    </g>
                    <g transform="matrix(1.160916,0,0,1.160916,-182.985653,-34.575774)">
                        <g transform="matrix(-1,-0,0,-0.799959,2177.533878,798.092437)">
                            <path d="M907.012,535.553L1089.288,535.553L1271.565,535.553C1271.565,636.222 1189.957,717.83 1089.288,717.83C988.62,717.83 907.012,636.222 907.012,535.553Z" style="fill:rgb(255,115,42);"/>
                        </g>
                        <g transform="matrix(1,0,-0,1,-23.551822,2.956863)">
                            <circle cx="1111.797" cy="241.657" r="46.727" style="fill:rgb(255,115,42);"/>
                        </g>
                    </g>
                </g>
                <g transform="matrix(1,0,-0,1,8.332392,-17.621206)">
                    <path d="M831.537,1039.368C831.537,1039.368 831.537,1054.645 831.537,1069.122C831.537,1083.167 820.619,1094.553 807.151,1094.553C776.467,1094.553 722.465,1094.553 678.512,1094.553C668.139,1094.553 658.901,1087.709 655.486,1077.493C652.071,1067.278 655.227,1055.929 663.353,1049.203C670.409,1043.363 675.235,1039.368 675.235,1039.368L831.537,1039.368Z"/>
                </g>
                <g transform="matrix(-1,-0,-0,1,2169.443637,-17.621206)">
                    <path d="M831.537,1039.368C831.537,1039.368 831.537,1054.645 831.537,1069.122C831.537,1083.167 820.619,1094.553 807.151,1094.553C776.467,1094.553 722.465,1094.553 678.512,1094.553C668.139,1094.553 658.901,1087.709 655.486,1077.493C652.071,1067.278 655.227,1055.929 663.353,1049.203C670.409,1043.363 675.235,1039.368 675.235,1039.368L831.537,1039.368Z"/>
                </g>
                <g transform="matrix(1,0,0,1.012224,0,-9.844447)">
                    <path d="M1518.624,805.329L1518.624,1019.134L1303.235,1019.134L1303.235,1017.773C1303.235,972.679 1267.752,936.123 1223.982,936.123C1146.692,936.123 1029.799,936.123 952.509,936.123C908.739,936.123 873.256,972.679 873.256,1017.773C873.256,1018.656 873.256,1019.134 873.256,1019.134L657.867,1019.134L657.867,805.329L1518.624,805.329Z" style="fill:rgb(214,175,16);"/>
                </g>
                <path d="M657.867,805.329C1036.083,838.686 1367.069,862.442 1518.624,849.72L1518.624,805.329L657.867,805.329Z" style="fill:rgb(171,141,18);"/>
                <g>
                    <g>
                        <g>
                            <g>
                                <g transform="matrix(0.836364,0,-0,1.639214,138.234565,-397.603557)">
                                    <rect x="687.695" y="353.277" width="62.62" height="380.571" style="fill:rgb(249,220,99);"/>
                                </g>
                                <g transform="matrix(0.836364,0,-0,1.187827,337.469648,-66.354982)">
                                    <rect x="687.695" y="353.277" width="62.62" height="380.571" style="fill:rgb(249,220,99);"/>
                                </g>
                                <g transform="matrix(0.836364,0,-0,1.187827,437.08719,-66.354982)">
                                    <rect x="687.695" y="353.277" width="62.62" height="380.571" style="fill:rgb(249,220,99);"/>
                                </g>
                                <g transform="matrix(-0.836364,-0,-0,1.639214,1440.551115,-397.603557)">
                                    <path d="M750.315,356.565L750.315,458.073L687.695,458.073L687.695,371.324C706.454,364.656 727.586,359.604 750.315,356.565Z" style="fill:rgb(249,220,99);"/>
                                </g>
                                <g transform="matrix(0.836364,0,-0,1.187827,536.704732,-66.354982)">
                                    <rect x="687.695" y="353.277" width="62.62" height="380.571" style="fill:rgb(249,220,99);"/>
                                </g>
                                <g transform="matrix(0.836364,0,-0,1.187827,636.322274,-66.354982)">
                                    <rect x="687.695" y="353.277" width="62.62" height="380.571" style="fill:rgb(249,220,99);"/>
                                </g>
                                <g transform="matrix(0.836364,0,-0,1.639214,835.557358,-397.603557)">
                                    <rect x="687.695" y="353.277" width="62.62" height="380.571" style="fill:rgb(249,220,99);"/>
                                </g>
                                <g transform="matrix(0.836364,0,-0,1.187827,735.939816,-66.354982)">
                                    <rect x="687.695" y="353.277" width="62.62" height="380.571" style="fill:rgb(249,220,99);"/>
                                </g>
                                <g transform="matrix(0.836364,0,-0,0.451386,932.728097,22.027939)">
                                    <path d="M687.695,1735.323L687.695,353.277L750.315,353.277L750.315,733.847L732.158,733.847C713.301,737.979 702.35,756.761 700.527,792.455L700.527,1735.323L687.695,1735.323Z" style="fill:rgb(249,220,99);"/>
                                </g>
                                <g transform="matrix(0.836364,0,-0,0.451386,42.04812,22.027939)">
                                    <path d="M704.675,733.847L687.695,733.847L687.695,353.277L750.315,353.277L750.315,1735.323L736.306,1735.323L736.306,792.455C734.076,757.515 723.939,737.225 704.675,733.847Z" style="fill:rgb(249,220,99);"/>
                                </g>
                            </g>
                            <g transform="matrix(0.836364,0,-0,1.187827,237.852106,-66.354982)">
                                <rect x="687.695" y="353.277" width="62.62" height="380.571" style="fill:rgb(249,220,99);"/>
                            </g>
                        </g>
                        <g transform="matrix(0.836364,0,-0,1.639214,735.939816,-397.603557)">
                            <path d="M750.315,356.565L750.315,458.073L687.695,458.073L687.695,371.324C706.454,364.656 727.586,359.604 750.315,356.565Z" style="fill:rgb(249,220,99);"/>
                        </g>
                    </g>
                </g>
                <g transform="matrix(0.669104,-0,0,0.669104,806.200992,983.600276)">
                    <g transform="matrix(625.853637,0,0,625.853637,746.786996,-307.296513)">
                    </g>
                    <text x="109.042px" y="-307.297px" style="font-family:'HelveticaRounded-Bold', 'Helvetica Rounded';font-weight:700;font-size:625.854px;fill:white;">10</text>
                </g>
                <g transform="matrix(1.160916,0,0,1.160916,-182.985653,-34.575774)">
                    <g transform="matrix(0.541412,0,0,0.541412,462.966601,117.598971)">
                        <circle cx="1005.471" cy="277.074" r="14.267"/>
                    </g>
                    <g transform="matrix(0.541412,0,0,0.541412,624.775378,117.598971)">
                        <circle cx="1005.471" cy="277.074" r="14.267"/>
                    </g>
                    <g>
                        <g transform="matrix(1,0,0,1,-341.843118,-42.388175)">
                            <circle cx="1269.032" cy="378.531" r="47.218" style="fill:rgb(216,82,12);"/>
                        </g>
                        <g transform="matrix(1,0,0,1,-317.222773,-19.065424)">
                            <circle cx="1269.032" cy="378.531" r="47.218" style="fill:rgb(216,82,12);"/>
                        </g>
                        <g transform="matrix(1,0,0,1,-258.243072,-24.557201)">
                            <circle cx="1269.032" cy="378.531" r="47.218" style="fill:rgb(216,82,12);"/>
                        </g>
                        <g transform="matrix(1,0,0,1,-197.7618,-9.842828)">
                            <circle cx="1269.032" cy="378.531" r="47.218" style="fill:rgb(216,82,12);"/>
                        </g>
                        <g transform="matrix(1,0,0,1,-133.568349,-19.065424)">
                            <circle cx="1269.032" cy="378.531" r="47.218" style="fill:rgb(216,82,12);"/>
                        </g>
                        <g transform="matrix(1,0,0,1,-66.746832,-19.065424)">
                            <circle cx="1269.032" cy="378.531" r="47.218" style="fill:rgb(216,82,12);"/>
                        </g>
                        <g transform="matrix(1,0,0,1,-16.348125,-31.2308)">
                            <circle cx="1269.032" cy="378.531" r="47.218" style="fill:rgb(216,82,12);"/>
                        </g>
                    </g>
                    <g>
                        <g transform="matrix(1,0,0,1,-2.331783,-34.976483)">
                            <circle cx="1269.032" cy="378.531" r="47.218"/>
                        </g>
                        <g transform="matrix(1,0,0,1,-83.943614,120.085909)">
                            <circle cx="1269.032" cy="378.531" r="47.218"/>
                        </g>
                        <g transform="matrix(1,0,0,1,-353.845469,36.142375)">
                            <circle cx="1269.032" cy="378.531" r="47.218"/>
                        </g>
                        <g transform="matrix(1,0,0,1,-210.441887,141.654785)">
                            <circle cx="1269.032" cy="378.531" r="47.218"/>
                        </g>
                        <g transform="matrix(1,0,0,1,-57.711198,4.66354)">
                            <circle cx="1269.032" cy="378.531" r="47.218"/>
                        </g>
                        <g transform="matrix(1,0,0,1,-134.659461,-0.582932)">
                            <circle cx="1269.032" cy="378.531" r="47.218"/>
                        </g>
                        <g transform="matrix(1,0,0,1,-193.536578,12.241796)">
                            <circle cx="1269.032" cy="378.531" r="47.218"/>
                        </g>
                        <g transform="matrix(1,0,0,1,-258.243072,-10.492918)">
                            <circle cx="1269.032" cy="378.531" r="47.218"/>
                        </g>
                        <g transform="matrix(1,0,0,1,-327.613107,-2.33173)">
                            <circle cx="1269.032" cy="378.531" r="47.218"/>
                        </g>
                        <g transform="matrix(1,0,0,1,-362.58959,-51.881766)">
                            <circle cx="1269.032" cy="378.531" r="47.218"/>
                        </g>
                        <g transform="matrix(1.722223,0,0,1.722223,-1191.380501,-213.923244)">
                            <circle cx="1269.032" cy="378.531" r="47.218"/>
                        </g>
                        <g transform="matrix(1.722223,0,0,1.722223,-1074.209255,-201.681475)">
                            <circle cx="1269.032" cy="378.531" r="47.218"/>
                        </g>
                        <g transform="matrix(1.722223,0,0,1.722223,-936.052145,-223.250297)">
                            <circle cx="1269.032" cy="378.531" r="47.218"/>
                        </g>
                    </g>
                </g>
                <g transform="matrix(1,0,-0,1,2.168944,-11.997633)">
                    <circle cx="1367.964" cy="1086.61" r="9.678"/>
                </g>
                <g transform="matrix(1,0,-0,1,-694.441736,-11.997633)">
                    <circle cx="1367.964" cy="1086.61" r="9.678"/>
                </g>
                <g transform="matrix(1,0,-0,1,35.69906,-11.997633)">
                    <circle cx="1367.964" cy="1086.61" r="9.678"/>
                </g>
                <g transform="matrix(1,0,-0,1,-660.91162,-11.997633)">
                    <circle cx="1367.964" cy="1086.61" r="9.678"/>
                </g>
                <g transform="matrix(1,0,-0,1,69.229176,-11.997633)">
                    <circle cx="1367.964" cy="1086.61" r="9.678"/>
                </g>
                <g transform="matrix(1,0,-0,1,-627.381504,-11.997633)">
                    <circle cx="1367.964" cy="1086.61" r="9.678"/>
                </g>
                <g transform="matrix(1,0,-0,1,102.759292,-11.997633)">
                    <circle cx="1367.964" cy="1086.61" r="9.678"/>
                </g>
                <g transform="matrix(1,0,-0,1,-593.851388,-11.997633)">
                    <circle cx="1367.964" cy="1086.61" r="9.678"/>
                </g>
                <g transform="matrix(1,0,-0,1,136.289408,-11.997633)">
                    <circle cx="1367.964" cy="1086.61" r="9.678"/>
                </g>
                <g transform="matrix(1,0,-0,1,-560.321272,-11.997633)">
                    <circle cx="1367.964" cy="1086.61" r="9.678"/>
                </g>
            </g>
            <g transform="matrix(0.677425,0,0,4.19335,5637.543753,-9085.889539)">
                <g>
                    <g transform="matrix(0.867094,0,-0,0.575212,321.558943,798.173715)">
                        <path d="M2034.638,239.86L2034.638,302.779L1560.264,353.277L1560.389,186.373L2034.638,239.86Z" style="fill:rgb(95,220,211);"/>
                    </g>
                    <g transform="matrix(0.626234,0,-0,0.40763,695.626817,757.719773)">
                        <path d="M2180.181,372.44C2192.402,372.44 2202.31,382.538 2202.31,394.993C2202.31,425.609 2202.31,476.551 2202.31,476.551L2158.043,476.551C2158.043,476.551 2158.043,425.609 2158.043,394.993C2158.043,382.538 2167.951,372.44 2180.173,372.44C2180.175,372.44 2180.178,372.44 2180.181,372.44Z" style="fill:rgb(95,220,211);"/>
                    </g>
                    <g transform="matrix(0.442815,0.293754,-0.4345,0.288238,1307.680798,172.119221)">
                        <path d="M2180.181,372.44C2192.402,372.44 2202.31,382.538 2202.31,394.993C2202.31,425.609 2202.31,476.551 2202.31,476.551L2158.043,476.551C2158.043,476.551 2158.043,425.609 2158.043,394.993C2158.043,382.538 2167.951,372.44 2180.173,372.44C2180.175,372.44 2180.178,372.44 2180.181,372.44Z" style="fill:rgb(95,220,211);"/>
                    </g>
                    <g transform="matrix(-0,0.415431,-0.614476,-0,2361.003364,47.678633)">
                        <path d="M2180.181,372.44C2192.402,372.44 2202.31,382.538 2202.31,394.993C2202.31,425.609 2202.31,476.551 2202.31,476.551L2158.043,476.551L2158.043,394.993C2158.043,382.538 2167.951,372.44 2180.173,372.44C2180.175,372.44 2180.178,372.44 2180.181,372.44Z" style="fill:rgb(95,220,211);"/>
                    </g>
                    <g transform="matrix(-0.442815,0.293754,-0.4345,-0.288238,3238.509105,456.817591)">
                        <path d="M2180.181,372.44C2192.402,372.44 2202.31,382.538 2202.31,394.993C2202.31,425.609 2202.31,476.551 2202.31,476.551L2158.043,476.551C2158.043,476.551 2158.043,425.609 2158.043,394.993C2158.043,382.538 2167.951,372.44 2180.173,372.44C2180.175,372.44 2180.178,372.44 2180.181,372.44Z" style="fill:rgb(95,220,211);"/>
                    </g>
                </g>
                <g>
                    <g transform="matrix(-0.867094,0,0,0.575212,2210.528396,795.366433)">
                        <path d="M2034.638,239.86L2034.638,302.779L1560.264,353.277L1560.377,203.088L2034.638,239.86Z" style="fill:rgb(95,220,211);"/>
                    </g>
                    <g transform="matrix(-0.626234,0,0,0.40763,1836.460522,754.912491)">
                        <path d="M2180.181,372.44C2192.402,372.44 2202.31,382.538 2202.31,394.993C2202.31,425.609 2202.31,476.551 2202.31,476.551L2158.043,476.551C2158.043,476.551 2158.043,425.609 2158.043,394.993C2158.043,382.538 2167.951,372.44 2180.173,372.44C2180.175,372.44 2180.178,372.44 2180.181,372.44Z" style="fill:rgb(95,220,211);"/>
                    </g>
                    <g transform="matrix(-0.442815,0.293754,0.4345,0.288238,1224.406541,169.311939)">
                        <path d="M2180.181,372.44C2192.402,372.44 2202.31,382.538 2202.31,394.993C2202.31,425.609 2202.31,476.551 2202.31,476.551L2158.043,476.551C2158.043,476.551 2158.043,425.609 2158.043,394.993C2158.043,382.538 2167.951,372.44 2180.173,372.44C2180.175,372.44 2180.178,372.44 2180.181,372.44Z" style="fill:rgb(95,220,211);"/>
                    </g>
                    <g transform="matrix(0,0.415431,0.614476,-0,171.083975,44.871351)">
                        <path d="M2180.181,372.44C2192.402,372.44 2202.31,382.538 2202.31,394.993C2202.31,425.609 2202.31,476.551 2202.31,476.551L2158.043,476.551L2158.043,394.993C2158.043,382.538 2167.951,372.44 2180.173,372.44C2180.175,372.44 2180.178,372.44 2180.181,372.44Z" style="fill:rgb(95,220,211);"/>
                    </g>
                    <g transform="matrix(0.442815,0.293754,0.4345,-0.288238,-706.421766,454.010309)">
                        <path d="M2180.181,372.44C2192.402,372.44 2202.31,382.538 2202.31,394.993C2202.31,425.609 2202.31,476.551 2202.31,476.551L2158.043,476.551L2158.043,394.993C2158.043,382.538 2167.951,372.44 2180.173,372.44C2180.175,372.44 2180.178,372.44 2180.181,372.44Z" style="fill:rgb(95,220,211);"/>
                    </g>
                </g>
                <g transform="matrix(-0.957771,-0,-0,0.530877,2363.676269,806.220027)">
                    <path d="M1536.573,367.622L1828.289,355.5L1905.75,367.622L1905.75,181.492L1820.186,194.423L1433.279,181.492C1350.602,181.492 1283.58,261.706 1283.58,360.655L1283.58,367.622L1009.411,367.622L1009.411,360.655C1009.411,261.706 942.389,181.492 859.712,181.492L465.404,191.837L387.241,181.492L387.241,367.622C413.829,364.364 467.655,360.955 467.655,360.955C467.655,360.955 660.173,362.601 757.309,367.622L757.309,857.426L1536.573,857.426L1536.573,367.622Z" style="fill:rgb(38,82,119);"/>
                </g>
                <g transform="matrix(0.867094,0,-0,0.582243,321.558943,792.511073)">
                    <path d="M1518.624,805.329L1490.653,1019.134L1339.761,1019.134C1339.761,1019.134 1339.687,1016.31 1339.565,1011.704C1338.458,969.667 1303.609,936.178 1261.044,936.246C1171.337,936.391 1023.57,936.629 933.978,936.773C891.52,936.841 856.828,970.281 855.713,1012.212C855.599,1016.515 855.529,1019.134 855.529,1019.134L702.621,1019.134L657.867,805.329L1518.624,805.329Z" style="fill:rgb(38,82,119);"/>
                </g>
                <g transform="matrix(1.020844,0,0,0.663379,-7490.230501,0)">
                    <path d="M8211.664,1901.49L8195.834,1943.759L8569.511,1908.781L8942.191,1939.17L8942.191,1901.49L8211.664,1901.49Z" style="fill:rgb(180,228,255);"/>
                </g>
                <g transform="matrix(-1.020844,0,0,0.663379,10020.570445,0)">
                    <path d="M8211.664,1901.49L8195.834,1943.759L8569.511,1908.781L8942.191,1939.17L8942.191,1901.49L8211.664,1901.49Z" style="fill:rgb(180,228,255);"/>
                </g>
                <g transform="matrix(-0.427017,-0,0,-0.283274,4578.093273,1466.949113)">
                    <path d="M7844.049,1962.763C7806.048,1952.894 7762.659,1921.594 7762.659,1878.195C7762.659,1834.795 7804.297,1797.257 7841.294,1799.56C7894.341,1802.863 7915.033,1866.124 7952.792,1889.732C7961.817,1895.219 7967.068,1905.246 7966.438,1915.79C7965.808,1926.333 7959.4,1935.664 7949.786,1940.036C7911.443,1957.558 7869.274,1969.315 7844.049,1962.763Z"/>
                </g>
                <g transform="matrix(0.427017,0,0,-0.283274,-2061.400269,1466.949113)">
                    <path d="M7844.049,1962.763C7806.048,1952.894 7762.659,1921.594 7762.659,1878.195C7762.659,1834.795 7804.297,1797.257 7841.294,1799.56C7894.341,1802.863 7915.033,1866.124 7952.792,1889.732C7961.817,1895.219 7967.068,1905.246 7966.438,1915.79C7965.808,1926.333 7959.4,1935.664 7949.786,1940.036C7911.443,1957.558 7869.274,1969.315 7844.049,1962.763Z"/>
                </g>
                <g transform="matrix(1.006623,0,-0,0.667773,168.468665,774.586676)">
                    <g>
                        <g transform="matrix(-1,-0,0,-0.799959,2177.533878,798.092437)">
                            <path d="M907.012,535.553L1089.288,535.553L1271.565,535.553C1271.565,636.222 1189.957,717.83 1089.288,717.83C988.62,717.83 907.012,636.222 907.012,535.553Z" style="fill:rgb(95,220,211);"/>
                        </g>
                        <g transform="matrix(1,0,-0,1,-23.551822,2.956863)">
                            <circle cx="1111.797" cy="241.657" r="46.727" style="fill:rgb(95,220,211);"/>
                        </g>
                    </g>
                    <g transform="matrix(0.541412,0,0,0.541412,462.966601,117.598971)">
                        <circle cx="1005.471" cy="277.074" r="14.267"/>
                    </g>
                    <g transform="matrix(0.541412,0,0,0.541412,624.775378,117.598971)">
                        <circle cx="1005.471" cy="277.074" r="14.267"/>
                    </g>
                    <g>
                        <g transform="matrix(1,0,0,1,-341.843118,-42.388175)">
                            <circle cx="1269.032" cy="378.531" r="47.218" style="fill:rgb(27,182,171);"/>
                        </g>
                        <g transform="matrix(1,0,0,1,-317.222773,-19.065424)">
                            <circle cx="1269.032" cy="378.531" r="47.218" style="fill:rgb(27,182,171);"/>
                        </g>
                        <g transform="matrix(1,0,0,1,-258.243072,-24.557201)">
                            <circle cx="1269.032" cy="378.531" r="47.218" style="fill:rgb(27,182,171);"/>
                        </g>
                        <g transform="matrix(1,0,0,1,-197.7618,-9.842828)">
                            <circle cx="1269.032" cy="378.531" r="47.218" style="fill:rgb(27,182,171);"/>
                        </g>
                        <g transform="matrix(1,0,0,1,-133.568349,-19.065424)">
                            <circle cx="1269.032" cy="378.531" r="47.218" style="fill:rgb(27,182,171);"/>
                        </g>
                        <g transform="matrix(1,0,0,1,-66.746832,-19.065424)">
                            <circle cx="1269.032" cy="378.531" r="47.218" style="fill:rgb(27,182,171);"/>
                        </g>
                        <g transform="matrix(1,0,0,1,-16.348125,-31.2308)">
                            <circle cx="1269.032" cy="378.531" r="47.218" style="fill:rgb(27,182,171);"/>
                        </g>
                    </g>
                    <g>
                        <g transform="matrix(1,0,0,1,-2.331783,-34.976483)">
                            <circle cx="1269.032" cy="378.531" r="47.218"/>
                        </g>
                        <g transform="matrix(1,0,0,1,-83.943614,120.085909)">
                            <circle cx="1269.032" cy="378.531" r="47.218"/>
                        </g>
                        <g transform="matrix(1,0,0,1,-353.845469,36.142375)">
                            <circle cx="1269.032" cy="378.531" r="47.218"/>
                        </g>
                        <g transform="matrix(1,0,0,1,-210.441887,141.654785)">
                            <circle cx="1269.032" cy="378.531" r="47.218"/>
                        </g>
                        <g transform="matrix(1,0,0,1,-57.711198,4.66354)">
                            <circle cx="1269.032" cy="378.531" r="47.218"/>
                        </g>
                        <g transform="matrix(1,0,0,1,-134.659461,-0.582932)">
                            <circle cx="1269.032" cy="378.531" r="47.218"/>
                        </g>
                        <g transform="matrix(1,0,0,1,-193.536578,12.241796)">
                            <circle cx="1269.032" cy="378.531" r="47.218"/>
                        </g>
                        <g transform="matrix(1,0,0,1,-258.243072,-10.492918)">
                            <circle cx="1269.032" cy="378.531" r="47.218"/>
                        </g>
                        <g transform="matrix(1,0,0,1,-327.613107,-2.33173)">
                            <circle cx="1269.032" cy="378.531" r="47.218"/>
                        </g>
                        <g transform="matrix(1,0,0,1,-362.58959,-51.881766)">
                            <circle cx="1269.032" cy="378.531" r="47.218"/>
                        </g>
                        <g transform="matrix(1.722223,0,0,1.722223,-1191.380501,-213.923244)">
                            <circle cx="1269.032" cy="378.531" r="47.218"/>
                        </g>
                        <g transform="matrix(1.722223,0,0,1.722223,-1074.209255,-201.681475)">
                            <circle cx="1269.032" cy="378.531" r="47.218"/>
                        </g>
                        <g transform="matrix(1.722223,0,0,1.722223,-936.052145,-223.250297)">
                            <circle cx="1269.032" cy="378.531" r="47.218"/>
                        </g>
                    </g>
                </g>
                <g transform="matrix(0.148308,0,0,0.545397,661.235656,169.308966)">
                    <path d="M9296.631,1352.006L9279.885,1518.077L8978.297,1509.518L8978.297,1360.565L9296.631,1352.006Z" style="fill:rgb(180,228,255);"/>
                </g>
                <g transform="matrix(-0.148308,0,0,0.545397,1870.851683,166.501685)">
                    <path d="M9296.631,1352.006L9279.885,1518.077L8978.297,1509.518L8978.297,1360.565L9296.631,1352.006Z" style="fill:rgb(180,228,255);"/>
                </g>
                <g transform="matrix(1,0,0,0.663379,-7303.842638,0)">
                    <circle cx="9320.138" cy="1396.934" r="10.279" style="fill:rgb(255,248,127);"/>
                </g>
                <g transform="matrix(-1,0,0,0.663379,9835.929977,-2.807281)">
                    <circle cx="9320.138" cy="1396.934" r="10.279" style="fill:rgb(255,248,127);"/>
                </g>
                <g transform="matrix(1,0,0,0.663379,-7289.657664,0)">
                    <path d="M8353.041,2089.145C8353.041,2089.145 8353.96,2110.084 8354.667,2126.176C8354.876,2130.928 8353.134,2135.56 8349.845,2138.996C8346.556,2142.433 8342.005,2144.376 8337.249,2144.376C8337.035,2144.376 8336.821,2144.376 8336.608,2144.376C8327.942,2144.376 8320.592,2138.011 8319.352,2129.435C8319.189,2128.304 8319.086,2127.592 8319.086,2127.592C8319.086,2127.592 8244.224,2136.734 8205.002,2141.524C8200.899,2142.025 8196.886,2140.064 8194.761,2136.518C8192.636,2132.973 8192.798,2128.508 8195.174,2125.126C8206.373,2109.188 8220.455,2089.145 8220.455,2089.145L8353.041,2089.145Z"/>
                </g>
                <g transform="matrix(-1,0,0,0.663379,9836.298371,0)">
                    <path d="M8353.041,2089.145C8353.041,2089.145 8353.96,2110.084 8354.667,2126.176C8354.876,2130.928 8353.134,2135.56 8349.845,2138.996C8346.556,2142.433 8342.005,2144.376 8337.249,2144.376L8336.608,2144.376C8327.942,2144.376 8320.592,2138.011 8319.352,2129.435C8319.189,2128.304 8319.086,2127.592 8319.086,2127.592C8319.086,2127.592 8244.224,2136.734 8205.002,2141.524C8200.899,2142.025 8196.886,2140.064 8194.761,2136.518C8192.636,2132.973 8192.798,2128.508 8195.174,2125.126C8206.373,2109.188 8220.455,2089.145 8220.455,2089.145L8353.041,2089.145Z"/>
                </g>
                <g transform="matrix(0.183529,0,0,0.12175,-45.500118,816.99285)">
                    <circle cx="7575.943" cy="1128.316" r="174.48" style="fill:none;stroke:rgb(255,212,0);stroke-width:65.34px;"/>
                </g>
                <g transform="matrix(1,0,0,0.663379,-7303.842638,0)">
                    <path d="M9296.546,1372.412L9296.631,1496.236L9317.218,1499.464L9296.546,1372.412Z" style="fill:rgb(137,213,255);"/>
                </g>
                <g transform="matrix(-1,0,0,0.663379,9835.845261,-2.636231)">
                    <path d="M9296.546,1372.412L9296.631,1496.236L9317.218,1499.464L9296.546,1372.412Z" style="fill:rgb(137,213,255);"/>
                </g>
            </g>
            <g transform="matrix(0.6703,0,0,4.149246,4494.954754,-5900.870614)">
                <g transform="matrix(1,0,0,1,-22.091544,-875.283047)">
                    <g transform="matrix(-0.957771,-0,-0,0.530877,2338.23704,1569.61549)">
                        <path d="M1283.58,367.622L1009.411,367.622L1009.411,360.655C1009.411,261.706 942.389,181.492 859.712,181.492L757.309,194.443L757.309,857.426L1536.573,857.426L1536.573,194.443L1433.279,181.492C1350.602,181.492 1283.58,261.706 1283.58,360.655L1283.58,367.622Z" style="fill:rgb(87,157,210);"/>
                    </g>
                    <g transform="matrix(0.867094,0,-0,0.575212,296.119714,1561.569177)">
                        <path d="M2034.638,239.86L2034.638,302.779L1518.624,353.277L1518.624,193.444L2034.638,239.86Z" style="fill:rgb(87,157,210);"/>
                    </g>
                    <g transform="matrix(-0.867094,-0,-0,0.575212,2184.195247,1561.569177)">
                        <path d="M2034.638,239.86L2034.638,302.779L1519.608,353.277L1519.608,193.444L2034.638,239.86Z" style="fill:rgb(87,157,210);"/>
                    </g>
                    <g transform="matrix(0.626234,0,-0,0.40763,670.187588,1521.115235)">
                        <path d="M2180.179,372.44C2192.402,372.44 2202.31,382.538 2202.31,394.995C2202.31,425.611 2202.31,476.551 2202.31,476.551L2158.043,476.551C2158.043,476.551 2158.043,425.611 2158.043,394.995C2158.043,382.538 2167.951,372.44 2180.174,372.44C2180.176,372.44 2180.177,372.44 2180.179,372.44Z" style="fill:rgb(87,157,210);"/>
                    </g>
                    <g transform="matrix(-0.626234,-0,-0,0.40763,1810.127373,1521.115235)">
                        <path d="M2180.179,372.44C2192.402,372.44 2202.31,382.538 2202.31,394.995C2202.31,425.611 2202.31,476.551 2202.31,476.551L2158.043,476.551L2158.043,394.995C2158.043,382.538 2167.951,372.44 2180.174,372.44C2180.176,372.44 2180.177,372.44 2180.179,372.44Z" style="fill:rgb(87,157,210);"/>
                    </g>
                    <g transform="matrix(0.442815,0.293754,-0.4345,0.288238,1282.241569,935.514683)">
                        <path d="M2180.179,372.44C2192.402,372.44 2202.31,382.538 2202.31,394.995C2202.31,425.611 2202.31,476.551 2202.31,476.551L2158.043,476.551C2158.043,476.551 2158.043,425.611 2158.043,394.995C2158.043,382.538 2167.951,372.44 2180.174,372.44C2180.176,372.44 2180.177,372.44 2180.179,372.44Z" style="fill:rgb(87,157,210);"/>
                    </g>
                    <g transform="matrix(-0.442815,0.293754,0.4345,0.288238,1198.073391,935.514683)">
                        <path d="M2180.179,372.44C2192.402,372.44 2202.31,382.538 2202.31,394.995C2202.31,425.611 2202.31,476.551 2202.31,476.551L2158.043,476.551C2158.043,476.551 2158.043,425.611 2158.043,394.995C2158.043,382.538 2167.951,372.44 2180.174,372.44C2180.176,372.44 2180.177,372.44 2180.179,372.44Z" style="fill:rgb(87,157,210);"/>
                    </g>
                    <g transform="matrix(-0,0.415431,-0.614476,-0,2335.564135,811.074095)">
                        <path d="M2180.179,372.44C2192.402,372.44 2202.31,382.538 2202.31,394.995C2202.31,425.611 2202.31,476.551 2202.31,476.551L2158.043,476.551L2158.043,394.995C2158.043,382.538 2167.951,372.44 2180.174,372.44C2180.176,372.44 2180.177,372.44 2180.179,372.44Z" style="fill:rgb(87,157,210);"/>
                    </g>
                    <g transform="matrix(-0,0.415431,0.614476,0,144.750826,811.074095)">
                        <path d="M2180.179,372.44C2192.402,372.44 2202.31,382.538 2202.31,394.995C2202.31,425.611 2202.31,476.551 2202.31,476.551L2158.043,476.551L2158.043,394.995C2158.043,382.538 2167.951,372.44 2180.174,372.44C2180.176,372.44 2180.177,372.44 2180.179,372.44Z" style="fill:rgb(87,157,210);"/>
                    </g>
                    <g transform="matrix(-0.442815,0.293754,-0.4345,-0.288238,3213.069876,1220.213053)">
                        <path d="M2180.179,372.44C2192.402,372.44 2202.31,382.538 2202.31,394.995C2202.31,425.611 2202.31,476.551 2202.31,476.551L2158.043,476.551C2158.043,476.551 2158.043,425.611 2158.043,394.995C2158.043,382.538 2167.951,372.44 2180.174,372.44C2180.176,372.44 2180.177,372.44 2180.179,372.44Z" style="fill:rgb(87,157,210);"/>
                    </g>
                    <g transform="matrix(0.442815,0.293754,0.4345,-0.288238,-732.754915,1220.213053)">
                        <path d="M2180.179,372.44C2192.402,372.44 2202.31,382.538 2202.31,394.995C2202.31,425.611 2202.31,476.551 2202.31,476.551L2158.043,476.551L2158.043,394.995C2158.043,382.538 2167.951,372.44 2180.174,372.44C2180.176,372.44 2180.177,372.44 2180.179,372.44Z" style="fill:rgb(87,157,210);"/>
                    </g>
                    <g transform="matrix(0.867094,0,-0,0.575212,303.34468,1551.433253)">
                        <path d="M831.537,1039.368C831.537,1039.368 831.537,1055.389 831.537,1070.167C831.537,1076.634 828.968,1082.837 824.395,1087.41C819.821,1091.983 813.619,1094.553 807.151,1094.553C775.943,1094.553 720.614,1094.553 676.27,1094.553C665.988,1094.553 656.811,1088.103 653.327,1078.43C649.843,1068.756 652.801,1057.937 660.721,1051.381C669.181,1044.379 675.235,1039.368 675.235,1039.368L831.537,1039.368Z" style="fill:rgb(87,157,210);"/>
                    </g>
                    <g transform="matrix(-0.867094,-0,-0,0.575212,2177.231106,1551.433253)">
                        <path d="M831.537,1039.368L831.537,1070.167C831.537,1076.634 828.968,1082.837 824.395,1087.41C819.821,1091.983 813.619,1094.553 807.151,1094.553C775.943,1094.553 720.614,1094.553 676.27,1094.553C665.988,1094.553 656.811,1088.103 653.327,1078.43C649.843,1068.756 652.801,1057.937 660.721,1051.381C669.181,1044.379 675.235,1039.368 675.235,1039.368L831.537,1039.368Z" style="fill:rgb(87,157,210);"/>
                    </g>
                    <g transform="matrix(0.867094,0,-0,0.582243,296.119714,1555.906536)">
                        <path d="M1518.624,805.329L1494.208,1019.134L1337.907,1019.134L1337.907,1014.419C1337.907,993.654 1329.557,973.739 1314.694,959.056C1299.831,944.372 1279.673,936.123 1258.653,936.123L919.123,936.123C898.103,936.123 877.945,944.372 863.082,959.056C848.219,973.739 839.869,993.654 839.869,1014.419L839.869,1019.134L683.568,1019.134L657.867,805.329L1518.624,805.329Z" style="fill:rgb(87,157,210);"/>
                    </g>
                    <g transform="matrix(1.558609,0.876517,-1.682672,1.316738,-8258.42366,-9256.275165)">
                        <path d="M8780.546,2516.762C8780.546,2516.762 8769.973,2600.293 8682.659,2619.579C8690.044,2613.338 8754.567,2575.973 8780.546,2516.762Z" style="fill:rgb(57,128,182);"/>
                    </g>
                    <g transform="matrix(1.205273,0,-0,0.831009,-8985.520588,-538.018291)">
                        <path d="M8174.14,2817.682C8174.14,2817.682 8581.738,2842.372 8675.454,2662.184C8687.723,2638.593 8755.097,2652.332 8755.097,2652.332C8770.814,2695.873 8796.038,2777.998 8796.038,2777.998C8796.038,2777.998 8804.551,3049.81 8796.038,3180.157C8810.407,3223.054 8280.242,3214.34 8260.174,3167.284C8217.333,3171.432 8183.186,3168.03 8170.395,3146.086L8174.14,2817.682Z" style="fill:rgb(144,6,0);"/>
                        <clipPath id="_clip1">
                            <path d="M8174.14,2817.682C8174.14,2817.682 8581.738,2842.372 8675.454,2662.184C8687.723,2638.593 8755.097,2652.332 8755.097,2652.332C8770.814,2695.873 8796.038,2777.998 8796.038,2777.998C8796.038,2777.998 8804.551,3049.81 8796.038,3180.157C8810.407,3223.054 8280.242,3214.34 8260.174,3167.284C8217.333,3171.432 8183.186,3168.03 8170.395,3146.086L8174.14,2817.682Z"/>
                        </clipPath>
                        <g clip-path="url(#_clip1)">
                            <g transform="matrix(1.102374,-0.645088,0.511207,0.635667,-2476.869292,6634.026074)">
                                <path d="M8360.06,2994.426C8360.06,2994.426 8365.843,2995.152 8376.289,2995.937C8445.323,3001.124 8709.727,3024.633 8863.331,2842.492C8863.331,2842.492 8757.965,3117.587 8360.06,2994.426Z" style="fill:rgb(110,5,0);"/>
                            </g>
                            <g transform="matrix(0.453279,-0.246092,0.331249,0.440958,3784.243569,3869.352114)">
                                <path d="M8351.739,3010.168C8351.739,3010.168 8686.484,3052.194 8863.331,2842.492C8863.331,2842.492 8749.644,3133.329 8351.739,3010.168Z" style="fill:rgb(110,5,0);"/>
                            </g>
                            <g transform="matrix(0.829687,-0,0,0.798281,1392.926104,647.662697)">
                                <path d="M8780.546,2516.762C8780.546,2516.762 8767.491,2600.07 8680.177,2619.356C8675.445,2624.968 8754.567,2575.973 8780.546,2516.762Z" style="fill:rgb(57,128,182);"/>
                            </g>
                        </g>
                    </g>
                    <g transform="matrix(1.160753,-0.258597,0.314442,0.621126,-9663.99687,2230.424626)">
                        <path d="M8351.739,3010.168C8351.739,3010.168 8686.484,3052.194 8863.331,2842.492C8863.331,2842.492 8749.644,3133.329 8351.739,3010.168Z" style="fill:rgb(110,5,0);"/>
                    </g>
                    <g transform="matrix(-1.006623,-0,0,-0.534191,2329.410435,2074.625049)">
                        <path d="M907.012,535.553L1089.288,535.553L1271.565,535.553C1271.565,636.222 1189.957,717.83 1089.288,717.83C988.62,717.83 907.012,636.222 907.012,535.553Z" style="fill:rgb(87,157,210);"/>
                    </g>
                    <g transform="matrix(1.006623,0,-0,0.667773,113.746152,1543.655298)">
                        <circle cx="1111.797" cy="241.657" r="46.727" style="fill:rgb(87,157,210);"/>
                    </g>
                    <g transform="matrix(0.544998,0,-0,0.36154,603.486962,1620.210157)">
                        <circle cx="1005.471" cy="277.074" r="14.267"/>
                    </g>
                    <g transform="matrix(0.544998,0,-0,0.36154,766.367456,1620.210157)">
                        <circle cx="1005.471" cy="277.074" r="14.267"/>
                    </g>
                    <g transform="matrix(1.006623,0,-0,0.667773,-206.653302,1513.375125)">
                        <circle cx="1269.032" cy="378.531" r="47.218" style="fill:rgb(57,128,182);"/>
                    </g>
                    <g transform="matrix(1.006623,0,-0,0.667773,-181.869887,1528.949419)">
                        <circle cx="1269.032" cy="378.531" r="47.218" style="fill:rgb(57,128,182);"/>
                    </g>
                    <g transform="matrix(1.006623,0,-0,0.667773,-122.499542,1525.28216)">
                        <circle cx="1269.032" cy="378.531" r="47.218" style="fill:rgb(57,128,182);"/>
                    </g>
                    <g transform="matrix(1.006623,0,-0,0.667773,-61.617681,1535.108016)">
                        <circle cx="1269.032" cy="378.531" r="47.218" style="fill:rgb(57,128,182);"/>
                    </g>
                    <g transform="matrix(1.006623,0,-0,0.667773,3.000946,1528.949419)">
                        <circle cx="1269.032" cy="378.531" r="47.218" style="fill:rgb(57,128,182);"/>
                    </g>
                    <g transform="matrix(1.006623,0,-0,0.667773,70.265047,1528.949419)">
                        <circle cx="1269.032" cy="378.531" r="47.218" style="fill:rgb(57,128,182);"/>
                    </g>
                    <g transform="matrix(1.006623,0,-0,0.667773,120.997562,1520.825713)">
                        <circle cx="1269.032" cy="378.531" r="47.218" style="fill:rgb(57,128,182);"/>
                    </g>
                    <g transform="matrix(1.006623,0,-0,0.667773,135.106739,1518.324449)">
                        <circle cx="1269.032" cy="378.531" r="47.218"/>
                    </g>
                    <g transform="matrix(1.006623,0,-0,0.667773,52.954364,1621.870866)">
                        <circle cx="1269.032" cy="378.531" r="47.218"/>
                    </g>
                    <g transform="matrix(1.006623,0,-0,0.667773,-74.381753,1636.27397)">
                        <circle cx="1269.032" cy="378.531" r="47.218"/>
                    </g>
                    <g transform="matrix(1.006623,0,-0,0.667773,79.360527,1544.79497)">
                        <circle cx="1269.032" cy="378.531" r="47.218"/>
                    </g>
                    <g transform="matrix(1.006623,0,-0,0.667773,1.902607,1541.29152)">
                        <circle cx="1269.032" cy="378.531" r="47.218"/>
                    </g>
                    <g transform="matrix(1.006623,0,-0,0.667773,-57.364473,1549.855522)">
                        <circle cx="1269.032" cy="378.531" r="47.218"/>
                    </g>
                    <g transform="matrix(1.006623,0,-0,0.667773,-122.499542,1534.673903)">
                        <circle cx="1269.032" cy="378.531" r="47.218"/>
                    </g>
                    <g transform="matrix(1.006623,0,-0,0.667773,-192.329039,1540.123721)">
                        <circle cx="1269.032" cy="378.531" r="47.218"/>
                    </g>
                    <g transform="matrix(1.006623,0,-0,0.667773,-227.537185,1507.035564)">
                        <circle cx="1269.032" cy="378.531" r="47.218"/>
                    </g>
                    <g transform="matrix(1,0,-0,0.663379,-7299.684709,-1.557097)">
                        <path d="M8341.42,2702.673C8341.42,2702.673 8319.608,2634.683 8375.901,2605.264" style="fill:none;stroke:rgb(32,120,15);stroke-width:14.62px;stroke-linecap:round;"/>
                    </g>
                    <g transform="matrix(1.006623,0,-0,0.667773,-218.735148,1565.815674)">
                        <circle cx="1269.032" cy="378.531" r="47.218"/>
                    </g>
                    <g transform="matrix(-1,-0,-0,0.663379,9788.445364,-1.557097)">
                        <path d="M8341.42,2702.673C8341.42,2702.673 8319.608,2634.683 8375.901,2605.264" style="fill:none;stroke:rgb(32,120,15);stroke-width:14.62px;stroke-linecap:round;"/>
                    </g>
                    <g transform="matrix(1.733629,0,-0,1.150053,-1061.817476,1398.828705)">
                        <circle cx="1269.032" cy="378.531" r="47.218"/>
                    </g>
                    <g transform="matrix(1.733629,0,-0,1.150053,-943.870162,1407.003423)">
                        <circle cx="1269.032" cy="378.531" r="47.218"/>
                    </g>
                    <g transform="matrix(1.733629,0,-0,1.150053,-804.797988,1392.600354)">
                        <circle cx="1269.032" cy="378.531" r="47.218"/>
                    </g>
                    <g transform="matrix(0.115018,-0.044052,0.02514,0.028886,68.107574,2042.319523)">
                        <circle cx="7926.502" cy="2894.351" r="128.215" style="fill:rgb(32,120,15);"/>
                    </g>
                    <g transform="matrix(-0.115018,-0.044052,-0.02514,0.028886,2419.432592,2040.386415)">
                        <circle cx="7926.502" cy="2894.351" r="128.215" style="fill:rgb(32,120,15);"/>
                    </g>
                    <g transform="matrix(0.131108,-0.014066,0.008027,0.032926,-8.153035,1780.589616)">
                        <circle cx="7926.502" cy="2894.351" r="128.215" style="fill:rgb(32,120,15);"/>
                    </g>
                    <g transform="matrix(-0.131108,-0.014066,-0.008027,0.032926,2495.693201,1778.656509)">
                        <circle cx="7926.502" cy="2894.351" r="128.215" style="fill:rgb(32,120,15);"/>
                    </g>
                    <g transform="matrix(0.128425,-0.022456,0.012815,0.032253,4.17891,1837.120753)">
                        <circle cx="7926.502" cy="2894.351" r="128.215" style="fill:rgb(32,120,15);"/>
                    </g>
                    <g transform="matrix(-0.128425,-0.022456,-0.012815,0.032253,2483.361256,1835.187645)">
                        <circle cx="7926.502" cy="2894.351" r="128.215" style="fill:rgb(32,120,15);"/>
                    </g>
                    <g transform="matrix(0.132809,0.000579,-0.000331,0.033353,15.177861,1639.509468)">
                        <circle cx="7926.502" cy="2894.351" r="128.215" style="fill:rgb(32,120,15);"/>
                    </g>
                    <g transform="matrix(-0.132809,0.000579,0.000331,0.033353,2472.362305,1637.576361)">
                        <circle cx="7926.502" cy="2894.351" r="128.215" style="fill:rgb(32,120,15);"/>
                    </g>
                    <g transform="matrix(0.115018,0.044052,-0.02514,0.028886,183.442774,1342.95914)">
                        <circle cx="7926.502" cy="2894.351" r="128.215" style="fill:rgb(32,120,15);"/>
                    </g>
                    <g transform="matrix(-0.115018,0.044052,0.02514,0.028886,2304.097392,1341.026033)">
                        <circle cx="7926.502" cy="2894.351" r="128.215" style="fill:rgb(32,120,15);"/>
                    </g>
                    <g transform="matrix(0.115018,0.044052,-0.02514,0.028886,183.707682,1328.900189)">
                        <circle cx="7926.502" cy="2894.351" r="128.215" style="fill:rgb(32,120,15);"/>
                    </g>
                    <g transform="matrix(-0.115018,0.044052,0.02514,0.028886,2303.832484,1326.967081)">
                        <circle cx="7926.502" cy="2894.351" r="128.215" style="fill:rgb(32,120,15);"/>
                    </g>
                    <g transform="matrix(0.059546,0.078753,-0.044942,0.014954,690.021135,1077.13653)">
                        <circle cx="7926.502" cy="2894.351" r="128.215" style="fill:rgb(32,120,15);"/>
                    </g>
                    <g transform="matrix(-0.059546,0.078753,0.044942,0.014954,1797.519031,1075.203422)">
                        <circle cx="7926.502" cy="2894.351" r="128.215" style="fill:rgb(32,120,15);"/>
                    </g>
                    <g transform="matrix(0.06762,0.07583,-0.043274,0.016982,633.276957,1082.623981)">
                        <circle cx="7926.502" cy="2894.351" r="128.215" style="fill:rgb(32,120,15);"/>
                    </g>
                    <g transform="matrix(-0.06762,0.07583,0.043274,0.016982,1854.263209,1080.690873)">
                        <circle cx="7926.502" cy="2894.351" r="128.215" style="fill:rgb(32,120,15);"/>
                    </g>
                    <g transform="matrix(1,0,0,0.663379,-7303.842638,0)">
                        <rect x="8760.053" y="3287.764" width="168.162" height="8.632" style="fill:rgb(113,11,6);"/>
                    </g>
                    <g transform="matrix(0.231465,-0.153549,0.707107,0.46908,-2786.063468,1984.74374)">
                        <rect x="8760.053" y="3287.764" width="168.162" height="8.632" style="fill:rgb(113,11,6);"/>
                    </g>
                    <g transform="matrix(0.386579,0.068715,-0.258819,0.640775,-1079.304002,-538.99091)">
                        <rect x="8760.053" y="3287.764" width="168.162" height="8.632" style="fill:rgb(113,11,6);"/>
                    </g>
                    <g transform="matrix(-0.231465,-0.153549,-0.707107,0.46908,5267.372033,1984.74374)">
                        <rect x="8760.053" y="3287.764" width="168.162" height="8.632" style="fill:rgb(113,11,6);"/>
                    </g>
                    <g transform="matrix(-0.386579,0.068715,0.258819,0.640775,3560.612567,-538.99091)">
                        <rect x="8760.053" y="3287.764" width="168.162" height="8.632" style="fill:rgb(113,11,6);"/>
                    </g>
                    <g transform="matrix(1,0,0,0.663379,-7903.849406,0)">
                        <rect x="8760.053" y="3287.764" width="168.162" height="8.632" style="fill:rgb(113,11,6);"/>
                    </g>
                    <g transform="matrix(1,0,0,0.50197,-7250.44646,420.168661)">
                        <rect x="9248.488" y="2523.181" width="12.935" height="133.886" style="fill:rgb(215,168,0);"/>
                    </g>
                    <g transform="matrix(1,0,0,0.50197,-7274.454018,421.266998)">
                        <rect x="9248.488" y="2523.181" width="12.935" height="133.886" style="fill:rgb(215,168,0);"/>
                    </g>
                    <g transform="matrix(0.918476,-0.613542,0.709557,0.467449,-8277.626794,5245.424531)">
                        <rect x="7600.535" y="2387.841" width="21.214" height="11.9" style="fill:rgb(215,168,0);"/>
                    </g>
                    <g transform="matrix(1,0,0,0.663379,-7303.842638,0)">
                        <path d="M8870.629,2512.189L8940.337,2657.942L8916.752,2660.287L8870.629,2512.189Z" style="fill:rgb(57,128,182);"/>
                    </g>
                </g>
            </g>
            <g transform="matrix(0.6703,0,0,4.149246,5659.646927,-9142.179354)">
                <g transform="matrix(1,0,0,1,22.091544,-899.177386)">
                    <g transform="matrix(-0.957771,-0,-0,0.530877,2338.23704,2381.072216)">
                        <path d="M1283.58,367.622L1009.411,367.622L1009.411,360.655C1009.411,261.706 942.389,181.492 859.712,181.492L757.309,181.492L757.309,857.426L1536.573,857.426L1536.573,181.492L1433.279,181.492C1350.602,181.492 1283.58,261.706 1283.58,360.655L1283.58,367.622Z" style="fill:rgb(120,104,245);"/>
                    </g>
                    <g transform="matrix(0.867094,0,-0,0.575212,296.119714,2373.025903)">
                        <path d="M2034.638,239.86L2034.638,302.779L1518.624,353.277L1518.624,181.492L2034.638,239.86Z" style="fill:rgb(120,104,245);"/>
                    </g>
                    <g transform="matrix(-0.867094,-0,-0,0.575212,2184.195247,2373.025903)">
                        <path d="M2034.638,239.86L2034.638,302.779L1519.608,353.277L1519.608,181.492L2034.638,239.86Z" style="fill:rgb(120,104,245);"/>
                    </g>
                    <g transform="matrix(0.626234,0,-0,0.40763,670.187588,2332.571961)">
                        <path d="M2180.179,372.44C2192.402,372.44 2202.31,382.538 2202.31,394.995C2202.31,425.611 2202.31,476.551 2202.31,476.551L2158.043,476.551C2158.043,476.551 2158.043,425.611 2158.043,394.995C2158.043,382.538 2167.951,372.44 2180.174,372.44C2180.176,372.44 2180.177,372.44 2180.179,372.44Z" style="fill:rgb(120,104,245);"/>
                    </g>
                    <g transform="matrix(-0.626234,-0,-0,0.40763,1810.127373,2332.571961)">
                        <path d="M2180.179,372.44C2192.402,372.44 2202.31,382.538 2202.31,394.995C2202.31,425.611 2202.31,476.551 2202.31,476.551L2158.043,476.551C2158.043,476.551 2158.043,425.611 2158.043,394.995C2158.043,382.538 2167.951,372.44 2180.174,372.44C2180.176,372.44 2180.177,372.44 2180.179,372.44Z" style="fill:rgb(120,104,245);"/>
                    </g>
                    <g transform="matrix(0.442815,0.293754,-0.4345,0.288238,1282.241569,1746.971409)">
                        <path d="M2180.179,372.44C2192.402,372.44 2202.31,382.538 2202.31,394.995C2202.31,425.611 2202.31,476.551 2202.31,476.551L2158.043,476.551C2158.043,476.551 2158.043,425.611 2158.043,394.995C2158.043,382.538 2167.951,372.44 2180.174,372.44C2180.176,372.44 2180.177,372.44 2180.179,372.44Z" style="fill:rgb(120,104,245);"/>
                    </g>
                    <g transform="matrix(-0.442815,0.293754,0.4345,0.288238,1198.073391,1746.971409)">
                        <path d="M2180.179,372.44C2192.402,372.44 2202.31,382.538 2202.31,394.995C2202.31,425.611 2202.31,476.551 2202.31,476.551L2158.043,476.551C2158.043,476.551 2158.043,425.611 2158.043,394.995C2158.043,382.538 2167.951,372.44 2180.174,372.44C2180.176,372.44 2180.177,372.44 2180.179,372.44Z" style="fill:rgb(120,104,245);"/>
                    </g>
                    <g transform="matrix(-0,0.415431,-0.614476,-0,2335.564135,1622.530821)">
                        <path d="M2180.179,372.44C2192.402,372.44 2202.31,382.538 2202.31,394.995C2202.31,425.611 2202.31,476.551 2202.31,476.551L2158.043,476.551L2158.043,394.995C2158.043,382.538 2167.951,372.44 2180.174,372.44C2180.176,372.44 2180.177,372.44 2180.179,372.44Z" style="fill:rgb(120,104,245);"/>
                    </g>
                    <g transform="matrix(-0,0.415431,0.614476,0,144.750826,1622.530821)">
                        <path d="M2180.179,372.44C2192.402,372.44 2202.31,382.538 2202.31,394.995C2202.31,425.611 2202.31,476.551 2202.31,476.551L2158.043,476.551L2158.043,394.995C2158.043,382.538 2167.951,372.44 2180.174,372.44C2180.176,372.44 2180.177,372.44 2180.179,372.44Z" style="fill:rgb(120,104,245);"/>
                    </g>
                    <g transform="matrix(-0.442815,0.293754,-0.4345,-0.288238,3213.069876,2031.669779)">
                        <path d="M2180.179,372.44C2192.402,372.44 2202.31,382.538 2202.31,394.995C2202.31,425.611 2202.31,476.551 2202.31,476.551L2158.043,476.551C2158.043,476.551 2158.043,425.611 2158.043,394.995C2158.043,382.538 2167.951,372.44 2180.174,372.44C2180.176,372.44 2180.177,372.44 2180.179,372.44Z" style="fill:rgb(120,104,245);"/>
                    </g>
                    <g transform="matrix(0.442815,0.293754,0.4345,-0.288238,-732.754915,2031.669779)">
                        <path d="M2180.179,372.44C2192.402,372.44 2202.31,382.538 2202.31,394.995C2202.31,425.611 2202.31,476.551 2202.31,476.551L2158.043,476.551C2158.043,476.551 2158.043,425.611 2158.043,394.995C2158.043,382.538 2167.951,372.44 2180.174,372.44C2180.176,372.44 2180.177,372.44 2180.179,372.44Z" style="fill:rgb(120,104,245);"/>
                    </g>
                    <g transform="matrix(-1.006623,-0,0,-0.534191,2329.410435,2886.081775)">
                        <path d="M907.012,535.553L1089.288,535.553L1271.565,535.553C1271.565,636.222 1189.957,717.83 1089.288,717.83C988.62,717.83 907.012,636.222 907.012,535.553Z" style="fill:rgb(120,104,245);"/>
                    </g>
                    <g transform="matrix(1.006623,0,-0,0.667773,113.746152,2355.112024)">
                        <circle cx="1111.797" cy="241.657" r="46.727" style="fill:rgb(120,104,245);"/>
                    </g>
                </g>
                <g transform="matrix(0.867094,0,-0,0.582243,318.211258,1468.185876)">
                    <path d="M1518.624,805.329L1494.208,1019.134L1337.907,1019.134L1337.907,1014.419C1337.907,993.654 1329.557,973.739 1314.694,959.056C1299.831,944.372 1279.673,936.123 1258.653,936.123L919.123,936.123C898.103,936.123 877.945,944.372 863.082,959.056C848.219,973.739 839.869,993.654 839.869,1014.419C839.869,1017.394 839.869,1019.134 839.869,1019.134L683.568,1019.134L657.867,805.329L1518.624,805.329Z" style="fill:rgb(91,156,205);"/>
                </g>
                <g transform="matrix(0.544998,0,-0,0.36154,625.578506,1532.489497)">
                    <circle cx="1005.471" cy="277.074" r="14.267"/>
                </g>
                <g transform="matrix(0.544998,0,-0,0.36154,788.459,1532.489497)">
                    <circle cx="1005.471" cy="277.074" r="14.267"/>
                </g>
                <g transform="matrix(1,0,-0,0.618238,-7281.751094,-730.645349)">
                    <path d="M8762.875,3746.237C8762.875,3746.237 8591.703,4470.946 8311.147,3741.477C8293.139,3735.082 8272.353,3732.929 8251.886,3734.551C8251.886,3734.551 8278.469,3870.304 8170.395,3918.556L8170.395,4275.477L8916.752,4275.477L8916.752,3918.556C8916.752,3918.556 8786.459,3872.579 8815.526,3734.551C8791.988,3734.332 8777.303,3738.216 8762.875,3746.237Z" style="fill:rgb(218,218,218);"/>
                </g>
                <g transform="matrix(-0.276018,0.049063,0.097512,0.241417,2955.14062,415.058498)">
                    <path d="M7730.217,4299.402L7730.217,3987.158L7417.974,4299.402L7574.095,4299.402L7574.095,4611.645L7886.339,4299.402L7730.217,4299.402Z" style="fill:rgb(255,0,100);"/>
                </g>
                <g transform="matrix(1,0,0,1,22.091544,-899.177386)">
                    <g transform="matrix(1.006623,0,-0,0.667773,-206.653302,2324.831851)">
                        <circle cx="1269.032" cy="378.531" r="47.218" style="fill:rgb(92,77,217);"/>
                    </g>
                    <g transform="matrix(1.006623,0,-0,0.667773,-181.869887,2340.406144)">
                        <circle cx="1269.032" cy="378.531" r="47.218" style="fill:rgb(92,77,217);"/>
                    </g>
                    <g transform="matrix(1.006623,0,-0,0.667773,-122.499542,2336.738886)">
                        <circle cx="1269.032" cy="378.531" r="47.218" style="fill:rgb(92,77,217);"/>
                    </g>
                    <g transform="matrix(1.006623,0,-0,0.667773,-61.617681,2346.564742)">
                        <circle cx="1269.032" cy="378.531" r="47.218" style="fill:rgb(92,77,217);"/>
                    </g>
                    <g transform="matrix(1.006623,0,-0,0.667773,3.000946,2340.406144)">
                        <circle cx="1269.032" cy="378.531" r="47.218" style="fill:rgb(92,77,217);"/>
                    </g>
                    <g transform="matrix(1.006623,0,-0,0.667773,70.265047,2340.406144)">
                        <circle cx="1269.032" cy="378.531" r="47.218" style="fill:rgb(92,77,217);"/>
                    </g>
                    <g transform="matrix(1.006623,0,-0,0.667773,120.997562,2332.282439)">
                        <circle cx="1269.032" cy="378.531" r="47.218" style="fill:rgb(92,77,217);"/>
                    </g>
                </g>
                <g transform="matrix(0.867094,0,-0,0.582243,318.637995,1468.185876)">
                    <path d="M1518.624,805.329L1518.624,1019.134L1303.235,1019.134L1303.235,1014.419C1303.235,993.654 1294.885,973.739 1280.022,959.056C1265.159,944.372 1245.001,936.123 1223.982,936.123L952.509,936.123C931.49,936.123 911.332,944.372 896.469,959.056C881.606,973.739 873.256,993.654 873.256,1014.419L873.256,1019.134L657.867,1019.134L657.867,805.329L1518.624,805.329Z" style="fill:rgb(53,53,53);"/>
                </g>
                <g transform="matrix(1,0,0,0.663379,-7281.751094,-899.177386)">
                    <rect x="8170.822" y="4238.595" width="745.93" height="36.882" style="fill:rgb(78,78,78);"/>
                </g>
                <g transform="matrix(1.006623,0,-0,0.667773,157.198283,1430.603789)">
                    <circle cx="1269.032" cy="378.531" r="47.218"/>
                </g>
                <g transform="matrix(1.006623,0,-0,0.667773,75.045908,1534.150206)">
                    <circle cx="1269.032" cy="378.531" r="47.218"/>
                </g>
                <g transform="matrix(1.006623,0,-0,0.667773,-52.290209,1548.55331)">
                    <circle cx="1269.032" cy="378.531" r="47.218"/>
                </g>
                <g transform="matrix(1.006623,0,-0,0.667773,101.452071,1457.07431)">
                    <circle cx="1269.032" cy="378.531" r="47.218"/>
                </g>
                <g transform="matrix(1.006623,0,-0,0.667773,23.994151,1453.57086)">
                    <circle cx="1269.032" cy="378.531" r="47.218"/>
                </g>
                <g transform="matrix(1.006623,0,-0,0.667773,-35.272929,1462.134862)">
                    <circle cx="1269.032" cy="378.531" r="47.218"/>
                </g>
                <g transform="matrix(1.006623,0,-0,0.667773,-100.407998,1446.953243)">
                    <circle cx="1269.032" cy="378.531" r="47.218"/>
                </g>
                <g transform="matrix(1.006623,0,-0,0.667773,-170.237495,1452.403061)">
                    <circle cx="1269.032" cy="378.531" r="47.218"/>
                </g>
                <g transform="matrix(1.006623,0,-0,0.667773,-205.445641,1419.314904)">
                    <circle cx="1269.032" cy="378.531" r="47.218"/>
                </g>
                <g transform="matrix(1.006623,0,-0,0.667773,-196.643604,1478.095014)">
                    <circle cx="1269.032" cy="378.531" r="47.218"/>
                </g>
                <g transform="matrix(1.733629,0,-0,1.150053,-1039.725932,1311.108045)">
                    <circle cx="1269.032" cy="378.531" r="47.218"/>
                </g>
                <g transform="matrix(1.733629,0,-0,1.150053,-921.778618,1319.282763)">
                    <circle cx="1269.032" cy="378.531" r="47.218"/>
                </g>
                <g transform="matrix(1.733629,0,-0,1.150053,-782.706444,1304.879694)">
                    <circle cx="1269.032" cy="378.531" r="47.218"/>
                </g>
                <g transform="matrix(1,0,0,0.474653,-7268.830839,-181.080871)">
                    <rect x="9241.915" y="3753.741" width="56.94" height="122.272" style="fill:rgb(18,15,0);"/>
                </g>
                <g transform="matrix(1,0,0,0.474653,-8754.612908,-180.031964)">
                    <rect x="9241.915" y="3753.741" width="56.94" height="122.272" style="fill:rgb(18,15,0);"/>
                </g>
                <g transform="matrix(1.684211,0,0,0.888928,-13360.195573,-1670.785628)">
                    <path d="M9121.036,3667.342L9127.331,3683.906L9114.742,3683.906L9121.036,3667.342Z" style="fill:rgb(154,154,154);"/>
                </g>
                <g transform="matrix(1.684211,0,0,0.888928,-14845.977641,-1669.73672)">
                    <path d="M9121.036,3667.342L9127.331,3683.906L9114.742,3683.906L9121.036,3667.342Z" style="fill:rgb(154,154,154);"/>
                </g>
                <g transform="matrix(-1.684211,-0,0,-0.888928,17363.304848,4930.865139)">
                    <path d="M9121.036,3667.342L9127.331,3683.906L9114.742,3683.906L9121.036,3667.342Z" style="fill:rgb(154,154,154);"/>
                </g>
                <g transform="matrix(-1.684211,-0,0,-0.888928,15877.522779,4931.914046)">
                    <path d="M9121.036,3667.342L9127.331,3683.906L9114.742,3683.906L9121.036,3667.342Z" style="fill:rgb(154,154,154);"/>
                </g>
                <g transform="matrix(-1.684211,-0,0,-0.540786,17363.304848,3629.822821)">
                    <path d="M9121.036,3667.342L9127.331,3683.906L9114.742,3683.906L9121.036,3667.342Z" style="fill:rgb(154,154,154);"/>
                </g>
                <g transform="matrix(-1.684211,-0,0,-0.540786,15877.522779,3630.871728)">
                    <path d="M9121.036,3667.342L9127.331,3683.906L9114.742,3683.906L9121.036,3667.342Z" style="fill:rgb(154,154,154);"/>
                </g>
                <g transform="matrix(1.684211,0,0,0.540786,-13360.195573,-368.699616)">
                    <path d="M9121.036,3667.342L9127.331,3683.906L9114.742,3683.906L9121.036,3667.342Z" style="fill:rgb(154,154,154);"/>
                </g>
                <g transform="matrix(1.684211,0,0,0.540786,-14845.977641,-367.650709)">
                    <path d="M9121.036,3667.342L9127.331,3683.906L9114.742,3683.906L9121.036,3667.342Z" style="fill:rgb(154,154,154);"/>
                </g>
                <g transform="matrix(1,0,0,0.663379,-7281.751094,-899.177386)">
                    <circle cx="8899.407" cy="4283.536" r="8.06" style="fill:rgb(178,178,178);"/>
                </g>
                <g transform="matrix(1,0,0,0.663379,-7374.180504,-885.922266)">
                    <circle cx="8899.407" cy="4283.536" r="8.06" style="fill:rgb(178,178,178);"/>
                </g>
                <g transform="matrix(0.720627,0,0,0.45515,-4721.863599,19.651768)">
                    <path d="M8076.728,4260.051C8076.728,4260.051 8076.728,4260.052 8076.728,4260.054C8076.728,4320.391 8030.158,4369.304 7972.711,4369.304C7959.552,4369.304 7946.085,4369.304 7932.926,4369.304C7875.479,4369.304 7828.909,4320.391 7828.909,4260.054C7828.909,4260.052 7828.909,4260.051 7828.909,4260.051L8076.728,4260.051Z" style="fill:rgb(78,78,78);"/>
                </g>
                <g transform="matrix(0.720627,0,0,0.45515,-4206.813691,19.651768)">
                    <path d="M8076.728,4260.051C8076.728,4260.051 8076.728,4260.052 8076.728,4260.054C8076.728,4320.391 8030.158,4369.304 7972.711,4369.304C7959.552,4369.304 7946.085,4369.304 7932.926,4369.304C7875.479,4369.304 7828.909,4320.391 7828.909,4260.054C7828.909,4260.052 7828.909,4260.051 7828.909,4260.051L8076.728,4260.051Z" style="fill:rgb(78,78,78);"/>
                </g>
                <g transform="matrix(1,0,0,0.663379,-7273.021916,-899.177386)">
                    <rect x="8284.883" y="4238.595" width="13.252" height="36.882" style="fill:rgb(53,53,53);"/>
                </g>
                <g transform="matrix(1,0,0,0.663379,-6825.782657,-899.177386)">
                    <rect x="8284.883" y="4238.595" width="13.252" height="36.882" style="fill:rgb(53,53,53);"/>
                </g>
                <g transform="matrix(1,0,0,0.663379,-7233.163804,-899.177386)">
                    <rect x="8284.883" y="4238.595" width="13.252" height="36.882" style="fill:rgb(53,53,53);"/>
                </g>
                <g transform="matrix(1,0,0,0.663379,-6785.924544,-899.177386)">
                    <rect x="8284.883" y="4238.595" width="13.252" height="36.882" style="fill:rgb(53,53,53);"/>
                </g>
                <g transform="matrix(1,0,0,0.663379,-7029.259861,-899.177386)">
                    <rect x="8284.883" y="4238.595" width="13.252" height="36.882" style="fill:rgb(53,53,53);"/>
                </g>
                <g transform="matrix(1,0,0,0.663379,-7281.751094,-888.484079)">
                    <circle cx="8899.407" cy="4283.536" r="8.06" style="fill:rgb(178,178,178);"/>
                </g>
                <g transform="matrix(1,0,0,0.663379,-7281.751094,-877.790772)">
                    <circle cx="8899.407" cy="4283.536" r="8.06" style="fill:rgb(178,178,178);"/>
                </g>
                <g transform="matrix(1,0,0,0.663379,-7285.726554,-867.461595)">
                    <circle cx="8899.407" cy="4283.536" r="8.06" style="fill:rgb(178,178,178);"/>
                </g>
                <g transform="matrix(1,0,0,0.663379,-7291.358445,-857.571961)">
                    <circle cx="8899.407" cy="4283.536" r="8.06" style="fill:rgb(178,178,178);"/>
                </g>
                <g transform="matrix(1,0,0,0.663379,-7297.984231,-848.12187)">
                    <circle cx="8899.407" cy="4283.536" r="8.06" style="fill:rgb(178,178,178);"/>
                </g>
                <g transform="matrix(1,0,0,0.663379,-7306.266419,-839.990396)">
                    <circle cx="8899.407" cy="4283.536" r="8.06" style="fill:rgb(178,178,178);"/>
                </g>
                <g transform="matrix(1,0,0,0.663379,-7317.530232,-834.988435)">
                    <circle cx="8899.407" cy="4283.536" r="8.06" style="fill:rgb(178,178,178);"/>
                </g>
                <g transform="matrix(1,0,0,0.663379,-7330.781744,-838.452022)">
                    <circle cx="8899.407" cy="4283.536" r="8.06" style="fill:rgb(178,178,178);"/>
                </g>
                <g transform="matrix(1,0,0,0.663379,-7339.726529,-845.484644)">
                    <circle cx="8899.407" cy="4283.536" r="8.06" style="fill:rgb(178,178,178);"/>
                </g>
                <g transform="matrix(1,0,0,0.663379,-7346.352285,-854.495203)">
                    <circle cx="8899.407" cy="4283.536" r="8.06" style="fill:rgb(178,178,178);"/>
                </g>
                <g transform="matrix(1,0,0,0.663379,-7352.646773,-862.626676)">
                    <circle cx="8899.407" cy="4283.536" r="8.06" style="fill:rgb(178,178,178);"/>
                </g>
                <g transform="matrix(1,0,0,0.663379,-7357.2848,-871.637235)">
                    <circle cx="8899.407" cy="4283.536" r="8.06" style="fill:rgb(178,178,178);"/>
                </g>
                <g transform="matrix(1,0,0,0.663379,-7362.254124,-880.647794)">
                    <circle cx="8899.407" cy="4283.536" r="8.06" style="fill:rgb(178,178,178);"/>
                </g>
                <g transform="matrix(1.088313,0,0,0.663379,-8012.544658,-899.833001)">
                    <path d="M8322.532,4510.981C8325.887,4510.981 8329.07,4509.364 8331.223,4506.564C8333.377,4503.764 8334.28,4500.069 8333.689,4496.475C8331.374,4482.393 8328.208,4463.131 8328.208,4463.131L8191.419,4463.131C8197.198,4468.911 8189.976,4479.864 8180.772,4490.137C8177.641,4493.697 8176.763,4498.947 8178.541,4503.479C8180.319,4508.012 8184.411,4510.952 8188.939,4510.952C8214.145,4510.981 8249.172,4510.981 8265.567,4510.981C8270.982,4510.981 8276.102,4508.301 8279.481,4503.697C8286.011,4494.758 8296.654,4484.281 8298.219,4499.986C8298.846,4506.237 8303.698,4510.971 8309.475,4510.971C8313.581,4510.981 8318.258,4510.981 8322.532,4510.981Z"/>
                </g>
                <g transform="matrix(-1.088313,0,0,0.663379,10537.042706,-899.833001)">
                    <path d="M8322.532,4510.981C8325.887,4510.981 8329.07,4509.364 8331.223,4506.564C8333.377,4503.764 8334.28,4500.069 8333.689,4496.475C8331.374,4482.393 8328.208,4463.131 8328.208,4463.131L8191.419,4463.131C8197.198,4468.911 8189.976,4479.864 8180.772,4490.137C8177.641,4493.697 8176.763,4498.947 8178.541,4503.479C8180.319,4508.012 8184.411,4510.952 8188.939,4510.952C8214.145,4510.981 8249.172,4510.981 8265.567,4510.981C8270.982,4510.981 8276.102,4508.301 8279.481,4503.697C8286.011,4494.758 8296.654,4484.281 8298.219,4499.986C8298.846,4506.237 8303.698,4510.971 8309.475,4510.971C8313.581,4510.981 8318.258,4510.981 8322.532,4510.981Z"/>
                </g>
            </g>
        </g>
    </g>
</svg>
